# xmcd
#
# Track frame offsets:
#	150
#	11164
#	24480
#	39836
#	55050
#	74249
#	88684
#	100746
#	119042
#	148150
#	164853
#	183307
#
# Disc length: 2715 seconds
#
# Revision: 1
# Processed by: cddbd v1.5.2PL0 Copyright (c) Steve Scherf et al.
# Submitted via: audiograbber 1.83.01
#
DISCID=af0a990c
DTITLE=Njeri Weth - Bitter Sweet
DYEAR=2014
DGENRE=Gospel
TTITLE0=Wunder
TTITLE1=Psalm 23
TTITLE2=Angels
TTITLE3=Out of heaven
TTITLE4=Ich fürchte nichts
TTITLE5=Intercession
TTITLE6=Deliver me
TTITLE7=Wann
TTITLE8=White as snow
TTITLE9=Der Himmel
TTITLE10=Halleluja
TTITLE11=Mammy
EXTD=
EXTT0=
EXTT1=
EXTT2=
EXTT3=
EXTT4=
EXTT5=
EXTT6=
EXTT7=
EXTT8=
EXTT9=
EXTT10=
EXTT11=
PLAYORDER=
